<svg width="94" height="14" viewBox="0 0 94 14" fill="none" xmlns="http://www.w3.org/2000/svg">
<g clip-path="url(#clip0_3252_177)">
<path d="M-0.000354975 13.7699C10.8687 6.85298 23.8888 3.00294 36.8018 1.12134C39.7329 0.694744 43.2584 0.166068 46.1894 0.0411359C46.7088 0.019806 47.7444 -0.135597 48.0225 0.339754C37.8327 2.67994 26.8102 5.33856 17.8813 10.6893C15.4138 12.1687 14.2328 13.7212 11.094 13.9269C7.50136 14.163 3.62105 13.7379 -0.00195312 13.9208V13.7699H-0.000354975ZM73.1534 0.49211C71.1013 0.49211 68.3845 1.75971 67.8171 3.74491C67.0005 6.60464 69.3194 8.10687 72.0379 8.3354C76.1084 8.6782 80.6711 8.08097 84.7959 8.34149C86.0361 8.56089 85.6301 10.6512 84.3244 10.604L67.0996 10.6101C65.7012 10.7883 65.7443 12.4048 65.5733 13.4668C72.821 13.3708 80.1021 13.6694 87.3338 13.2992C93.9261 12.7613 95.0624 6.01045 87.5096 5.47263C83.5445 5.19077 79.2599 5.70573 75.2597 5.43911C73.7303 4.73827 74.6077 3.11568 76.1771 3.20252L92.9321 3.20557C93.68 3.27108 94.1083 0.623136 93.9725 0.493633H73.1518L73.1534 0.49211ZM60.7086 0.49211C59.0593 0.49211 59.4972 3.37316 58.7956 4.25988C58.1196 3.76015 57.2582 3.4402 56.4 3.35945C53.1621 3.05779 44.6232 3.0913 41.7194 4.10904C37.9445 5.43302 36.6676 9.52378 39.9678 11.9584C43.9696 14.9111 56.0628 12.8131 61.1944 13.4728C62.7398 13.3479 63.467 12.935 63.9352 11.5379C64.8174 8.90826 65.9058 4.04048 66.3325 1.28284C66.374 1.01774 66.3916 0.757209 66.374 0.49211H60.7102H60.7086ZM57.6401 6.41114C57.9901 6.56807 58.233 6.81489 58.2426 7.1973C58.2522 7.5203 57.6417 9.99304 57.4739 10.2581C57.3157 10.505 57.2486 10.6314 56.889 10.6101C53.6096 10.3633 49.8827 10.9087 46.6608 10.6101C45.4638 10.4989 44.6168 9.89553 44.5081 8.72543C44.3052 6.55436 45.7323 6.28469 47.6741 6.12167C49.3473 5.9815 56.4191 5.86418 57.6417 6.41419L57.6401 6.41114ZM37.8662 13.0402C35.9484 11.4739 32.3398 9.38513 30.1104 8.00326C29.6869 7.74121 28.2022 6.69757 27.8458 6.693C27.4095 6.68691 25.8258 7.39232 25.3111 7.60561C24.0182 8.14191 22.7813 8.84275 21.5395 9.46893C23.6778 10.8721 25.7938 12.804 28.3189 13.4683H38.1315C38.1986 13.1849 38.0308 13.1758 37.8662 13.0402ZM7.97761 0.49211L8.2429 0.92023L15.5512 5.61127C18.0492 4.81598 20.5582 4.05419 23.1329 3.50724L19.2302 0.940037C18.9441 0.805963 18.225 0.527152 17.9485 0.49211H7.97601H7.97761Z" fill="white"/>
</g>
<defs>
<clipPath id="clip0_3252_177">
<rect width="94" height="14" fill="white"/>
</clipPath>
</defs>
</svg>
