<svg width="323" height="57" viewBox="0 0 323 57" fill="none" xmlns="http://www.w3.org/2000/svg">
<path d="M41.8052 21.2334C41.8052 9.86983 32.5982 0.662842 21.2346 0.662842C9.87105 0.662842 0.664062 9.86983 0.664062 21.2334C0.664062 31.5004 8.18642 40.0107 18.0205 41.5551V27.1798H12.7949V21.2334H18.0205V16.7012C18.0205 11.5462 21.0895 8.69863 25.79 8.69863C28.0412 8.69863 30.3952 9.10009 30.3952 9.10009V14.1598H27.8006C25.2459 14.1598 24.4488 15.7457 24.4488 17.3723V21.2334H30.1538L29.2414 27.1798H24.4488V41.5551C34.2828 40.0107 41.8052 31.5004 41.8052 21.2334Z" fill="white"/>
<g clip-path="url(#clip0_3252_158)">
<path d="M112.022 11.695C106.747 11.695 102.492 15.9501 102.492 21.2255C102.492 26.5008 106.747 30.756 112.022 30.756C117.297 30.756 121.553 26.5008 121.553 21.2255C121.553 15.9501 117.297 11.695 112.022 11.695ZM112.022 27.4215C108.613 27.4215 105.826 24.6429 105.826 21.2255C105.826 17.8081 108.605 15.0294 112.022 15.0294C115.439 15.0294 118.218 17.8081 118.218 21.2255C118.218 24.6429 115.431 27.4215 112.022 27.4215ZM124.165 11.3052C124.165 12.5411 123.17 13.5281 121.942 13.5281C120.707 13.5281 119.719 12.5328 119.719 11.3052C119.719 10.0776 120.715 9.08222 121.942 9.08222C123.17 9.08222 124.165 10.0776 124.165 11.3052ZM130.478 13.5613C130.337 10.5835 129.656 7.94586 127.475 5.77268C125.302 3.5995 122.664 2.91935 119.686 2.77004C116.617 2.59586 107.419 2.59586 104.35 2.77004C101.38 2.91105 98.7425 3.59121 96.561 5.76439C94.3795 7.93757 93.7077 10.5752 93.5584 13.553C93.3842 16.622 93.3842 25.8207 93.5584 28.8897C93.6994 31.8674 94.3795 34.5051 96.561 36.6783C98.7425 38.8515 101.372 39.5316 104.35 39.6809C107.419 39.8551 116.617 39.8551 119.686 39.6809C122.664 39.5399 125.302 38.8598 127.475 36.6783C129.648 34.5051 130.328 31.8674 130.478 28.8897C130.652 25.8207 130.652 16.6303 130.478 13.5613ZM126.513 32.1826C125.866 33.8084 124.613 35.0609 122.979 35.7161C120.532 36.6866 114.726 36.4626 112.022 36.4626C109.318 36.4626 103.504 36.6783 101.065 35.7161C99.4392 35.0691 98.1868 33.8167 97.5315 32.1826C96.561 29.7357 96.785 23.9295 96.785 21.2255C96.785 18.5215 96.5693 12.707 97.5315 10.2683C98.1785 8.64261 99.4309 7.39013 101.065 6.73485C103.512 5.76439 109.318 5.98834 112.022 5.98834C114.726 5.98834 120.541 5.77268 122.979 6.73485C124.605 7.38183 125.857 8.63431 126.513 10.2683C127.483 12.7152 127.259 18.5215 127.259 21.2255C127.259 23.9295 127.483 29.744 126.513 32.1826Z" fill="white"/>
</g>
<path d="M227.143 10.2917C226.622 8.33007 225.087 6.78512 223.138 6.26082C219.605 5.30811 205.44 5.30811 205.44 5.30811C205.44 5.30811 191.274 5.30811 187.742 6.26082C185.793 6.7852 184.258 8.33007 183.737 10.2917C182.79 13.8474 182.79 21.2659 182.79 21.2659C182.79 21.2659 182.79 28.6844 183.737 32.24C184.258 34.2017 185.793 35.6823 187.742 36.2066C191.274 37.1593 205.44 37.1593 205.44 37.1593C205.44 37.1593 219.605 37.1593 223.138 36.2066C225.087 35.6823 226.622 34.2017 227.143 32.24C228.09 28.6844 228.09 21.2659 228.09 21.2659C228.09 21.2659 228.09 13.8474 227.143 10.2917ZM200.807 28.0013V14.5304L212.646 21.2661L200.807 28.0013Z" fill="white"/>
<g clip-path="url(#clip1_3252_158)">
<path d="M322.759 21.2341C322.759 32.9613 313.252 42.4683 301.525 42.4683C289.798 42.4683 280.291 32.9613 280.291 21.2341C280.291 9.50697 289.798 0 301.525 0C313.252 0 322.759 9.50697 322.759 21.2341ZM306.512 8.52781H302.242L302.14 8.63028V26.4601C302.14 26.8956 301.579 27.9232 301.286 28.2704C299.382 30.5248 295.605 29.6339 294.93 26.7675C294.255 23.9012 296.84 21.6269 299.61 22.3271V17.9892C299.567 17.9209 299.516 17.901 299.439 17.8868C297.361 17.5253 294.793 18.4447 293.225 19.8024C289.269 23.2238 289.607 29.5371 293.92 32.4945C299.06 36.0183 305.892 32.6738 306.509 26.5967V17.067L308.331 18.0803C309.663 18.6724 311.123 18.9997 312.592 18.9769V14.6049C309.267 14.6561 306.506 11.8382 306.512 8.52496V8.52781Z" fill="white"/>
</g>
<defs>
<clipPath id="clip0_3252_158">
<rect width="37.1597" height="42.4683" fill="white" transform="translate(93.4307)"/>
</clipPath>
<clipPath id="clip1_3252_158">
<rect width="42.4683" height="42.4683" fill="white" transform="translate(280.291)"/>
</clipPath>
</defs>
</svg>
