<svg width="296" height="43" viewBox="0 0 296 43" fill="none" xmlns="http://www.w3.org/2000/svg">
<g clip-path="url(#clip0_3252_209)">
<path d="M35.3081 17.9336C35.3081 8.33598 27.5319 0.559814 17.9343 0.559814C8.33672 0.559814 0.560547 8.33598 0.560547 17.9336C0.560547 26.6051 6.91389 33.7928 15.2197 35.0972V22.9559H10.8062V17.9336H15.2197V14.1058C15.2197 9.75181 17.8117 7.3468 21.7818 7.3468C23.6831 7.3468 25.6713 7.68587 25.6713 7.68587V11.9593H23.4799C21.3222 11.9593 20.649 13.2987 20.649 14.6725V17.9336H25.4674L24.6968 22.9559H20.649V35.0972C28.9548 33.7928 35.3081 26.6051 35.3081 17.9336Z" fill="white"/>
</g>
<g clip-path="url(#clip1_3252_209)">
<path d="M102.412 9.87757C97.9562 9.87757 94.3624 13.4714 94.3624 17.927C94.3624 22.3825 97.9562 25.9763 102.412 25.9763C106.867 25.9763 110.461 22.3825 110.461 17.927C110.461 13.4714 106.867 9.87757 102.412 9.87757ZM102.412 23.1601C99.5325 23.1601 97.1786 20.8132 97.1786 17.927C97.1786 15.0407 99.5255 12.6938 102.412 12.6938C105.298 12.6938 107.645 15.0407 107.645 17.927C107.645 20.8132 105.291 23.1601 102.412 23.1601ZM112.668 9.54831C112.668 10.5921 111.827 11.4258 110.79 11.4258C109.747 11.4258 108.913 10.5851 108.913 9.54831C108.913 8.51148 109.754 7.67082 110.79 7.67082C111.827 7.67082 112.668 8.51148 112.668 9.54831ZM117.999 11.4538C117.88 8.93882 117.306 6.71105 115.463 4.8756C113.628 3.04014 111.4 2.46569 108.885 2.33959C106.293 2.19247 98.5237 2.19247 95.9316 2.33959C93.4236 2.45868 91.1958 3.03314 89.3534 4.86859C87.5109 6.70405 86.9435 8.93182 86.8174 11.4468C86.6703 14.0389 86.6703 21.808 86.8174 24.4001C86.9365 26.9151 87.5109 29.1429 89.3534 30.9783C91.1958 32.8138 93.4166 33.3882 95.9316 33.5143C98.5237 33.6614 106.293 33.6614 108.885 33.5143C111.4 33.3952 113.628 32.8208 115.463 30.9783C117.299 29.1429 117.873 26.9151 117.999 24.4001C118.146 21.808 118.146 14.0459 117.999 11.4538ZM114.65 27.1813C114.104 28.5544 113.046 29.6122 111.666 30.1657C109.599 30.9853 104.696 30.7962 102.412 30.7962C100.128 30.7962 95.217 30.9783 93.1574 30.1657C91.7843 29.6192 90.7265 28.5614 90.173 27.1813C89.3534 25.1147 89.5425 20.2108 89.5425 17.927C89.5425 15.6431 89.3604 10.7322 90.173 8.67261C90.7195 7.29952 91.7773 6.24168 93.1574 5.68824C95.224 4.86859 100.128 5.05774 102.412 5.05774C104.696 5.05774 109.606 4.8756 111.666 5.68824C113.039 6.23468 114.097 7.29252 114.65 8.67261C115.47 10.7393 115.281 15.6431 115.281 17.927C115.281 20.2108 115.47 25.1217 114.65 27.1813Z" fill="white"/>
</g>
<path d="M207.443 8.6923C207.003 7.03549 205.706 5.73063 204.06 5.28781C201.076 4.48315 189.112 4.48315 189.112 4.48315C189.112 4.48315 177.148 4.48315 174.164 5.28781C172.518 5.7307 171.222 7.03549 170.782 8.6923C169.982 11.6954 169.982 17.961 169.982 17.961C169.982 17.961 169.982 24.2266 170.782 27.2297C171.222 28.8865 172.518 30.137 174.164 30.5798C177.148 31.3845 189.112 31.3845 189.112 31.3845C189.112 31.3845 201.076 31.3845 204.06 30.5798C205.706 30.137 207.003 28.8865 207.443 27.2297C208.242 24.2266 208.242 17.961 208.242 17.961C208.242 17.961 208.242 11.6954 207.443 8.6923ZM185.199 23.6497V12.2723L195.199 17.9612L185.199 23.6497Z" fill="white"/>
<g clip-path="url(#clip2_3252_209)">
<path d="M295.999 17.9342C295.999 27.8389 287.97 35.8685 278.065 35.8685C268.16 35.8685 260.131 27.8389 260.131 17.9342C260.131 8.02954 268.16 0 278.065 0C287.97 0 295.999 8.02954 295.999 17.9342ZM282.277 7.20254H278.671L278.584 7.28909V22.3481C278.584 22.7159 278.111 23.5838 277.863 23.8771C276.255 25.7811 273.065 25.0286 272.495 22.6077C271.925 20.1868 274.108 18.266 276.447 18.8574V15.1936C276.411 15.1359 276.368 15.1191 276.303 15.1071C274.548 14.8018 272.38 15.5783 271.055 16.725C267.713 19.6147 267.999 24.9469 271.641 27.4447C275.983 30.4209 281.753 27.5961 282.275 22.4635V14.4147L283.813 15.2705C284.938 15.7706 286.172 16.0471 287.412 16.0278V12.3352C284.604 12.3785 282.272 9.99846 282.277 7.20014V7.20254Z" fill="white"/>
</g>
<defs>
<clipPath id="clip0_3252_209">
<rect width="35.8685" height="35.8685" fill="white"/>
</clipPath>
<clipPath id="clip1_3252_209">
<rect width="31.3849" height="35.8685" fill="white" transform="translate(86.7109)"/>
</clipPath>
<clipPath id="clip2_3252_209">
<rect width="35.8685" height="35.8685" fill="white" transform="translate(260.131)"/>
</clipPath>
</defs>
</svg>
