<svg width="357" height="44" viewBox="0 0 357 44" fill="none" xmlns="http://www.w3.org/2000/svg">
<g clip-path="url(#clip0_0_25)">
<path d="M43.3125 22C43.3125 10.2266 33.7734 0.6875 22 0.6875C10.2266 0.6875 0.6875 10.2266 0.6875 22C0.6875 32.6373 8.48117 41.4545 18.6699 43.0547V28.1609H13.2559V22H18.6699V17.3044C18.6699 11.9634 21.8496 9.01312 26.7197 9.01312C29.052 9.01312 31.4909 9.42906 31.4909 9.42906V14.6713H28.8028C26.1559 14.6713 25.3301 16.3144 25.3301 17.9996V22H31.2409L30.2955 28.1609H25.3301V43.0547C35.5188 41.4545 43.3125 32.6373 43.3125 22Z" fill="white"/>
</g>
<g clip-path="url(#clip1_0_25)">
<path d="M123.509 12.1176C117.972 12.1176 113.506 16.5262 113.506 21.9918C113.506 27.4574 117.972 31.866 123.509 31.866C129.045 31.866 133.511 27.4574 133.511 21.9918C133.511 16.5262 129.045 12.1176 123.509 12.1176ZM123.509 28.4113C119.931 28.4113 117.006 25.5324 117.006 21.9918C117.006 18.4512 119.922 15.5723 123.509 15.5723C127.095 15.5723 130.012 18.4512 130.012 21.9918C130.012 25.5324 127.087 28.4113 123.509 28.4113ZM136.254 11.7137C136.254 12.9941 135.209 14.0168 133.92 14.0168C132.623 14.0168 131.587 12.9855 131.587 11.7137C131.587 10.4418 132.632 9.41055 133.92 9.41055C135.209 9.41055 136.254 10.4418 136.254 11.7137ZM142.878 14.0512C142.73 10.966 142.016 8.2332 139.727 5.98164C137.446 3.73008 134.678 3.02539 131.553 2.8707C128.332 2.69023 118.677 2.69023 115.456 2.8707C112.34 3.0168 109.572 3.72148 107.282 5.97305C104.993 8.22461 104.287 10.9574 104.131 14.0426C103.948 17.2223 103.948 26.7527 104.131 29.9324C104.279 33.0176 104.993 35.7504 107.282 38.002C109.572 40.2535 112.331 40.9582 115.456 41.1129C118.677 41.2934 128.332 41.2934 131.553 41.1129C134.678 40.9668 137.446 40.2621 139.727 38.002C142.008 35.7504 142.722 33.0176 142.878 29.9324C143.061 26.7527 143.061 17.2309 142.878 14.0512ZM138.717 33.3441C138.038 35.0285 136.724 36.3262 135.009 37.0051C132.441 38.0105 126.347 37.7785 123.509 37.7785C120.671 37.7785 114.568 38.002 112.009 37.0051C110.303 36.3348 108.988 35.0371 108.301 33.3441C107.282 30.809 107.517 24.7934 107.517 21.9918C107.517 19.1902 107.291 13.166 108.301 10.6395C108.98 8.95508 110.294 7.65742 112.009 6.97852C114.577 5.97305 120.671 6.20508 123.509 6.20508C126.347 6.20508 132.449 5.98164 135.009 6.97852C136.715 7.64883 138.029 8.94648 138.717 10.6395C139.736 13.1746 139.501 19.1902 139.501 21.9918C139.501 24.7934 139.736 30.8176 138.717 33.3441Z" fill="white"/>
</g>
<path d="M250.713 10.6634C250.168 8.63096 248.561 7.03029 246.522 6.48708C242.825 5.5 228 5.5 228 5.5C228 5.5 213.175 5.5 209.478 6.48708C207.439 7.03038 205.832 8.63096 205.287 10.6634C204.296 14.3473 204.296 22.0333 204.296 22.0333C204.296 22.0333 204.296 29.7194 205.287 33.4033C205.832 35.4357 207.439 36.9697 209.478 37.5129C213.175 38.5 228 38.5 228 38.5C228 38.5 242.825 38.5 246.522 37.5129C248.561 36.9697 250.168 35.4357 250.713 33.4033C251.704 29.7194 251.704 22.0333 251.704 22.0333C251.704 22.0333 251.704 14.3473 250.713 10.6634ZM223.151 29.0117V15.055L235.542 22.0335L223.151 29.0117Z" fill="white"/>
<g clip-path="url(#clip2_0_25)">
<path d="M357 22C357 34.1501 347.15 44 335 44C322.85 44 313 34.1501 313 22C313 9.84986 322.85 0 335 0C347.15 0 357 9.84986 357 22ZM340.167 8.83539H335.743L335.637 8.94156V27.4145C335.637 27.8657 335.056 28.9303 334.752 29.2901C332.779 31.6257 328.866 30.7027 328.167 27.733C327.468 24.7633 330.146 22.407 333.015 23.1324V18.6381C332.971 18.5673 332.918 18.5466 332.838 18.5319C330.686 18.1574 328.025 19.1099 326.401 20.5166C322.301 24.0614 322.652 30.6024 327.12 33.6665C332.446 37.3174 339.524 33.8523 340.164 27.556V17.6826L342.051 18.7324C343.431 19.3458 344.944 19.685 346.466 19.6614V15.1316C343.021 15.1847 340.161 12.2651 340.167 8.83244V8.83539Z" fill="white"/>
</g>
<defs>
<clipPath id="clip0_0_25">
<rect width="44" height="44" fill="white"/>
</clipPath>
<clipPath id="clip1_0_25">
<rect width="39" height="44" fill="white" transform="translate(104)"/>
</clipPath>
<clipPath id="clip2_0_25">
<rect width="44" height="44" fill="white" transform="translate(313)"/>
</clipPath>
</defs>
</svg>
